<?xml version="1.0" encoding="UTF-8"?>
<!DOCTYPE svg PUBLIC "-//W3C//DTD SVG 1.0//EN" "http://www.w3.org/TR/2001/REC-SVG-20010904/DTD/svg10.dtd">
<!-- Creator: CorelDRAW -->
<svg xmlns="http://www.w3.org/2000/svg" xml:space="preserve" width="210mm" height="297mm" version="1.0" style="shape-rendering:geometricPrecision; text-rendering:geometricPrecision; image-rendering:optimizeQuality; fill-rule:evenodd; clip-rule:evenodd"
viewBox="0 0 21000 29700"
 xmlns:xlink="http://www.w3.org/1999/xlink"
 xmlns:xodm="http://www.corel.com/coreldraw/odm/2003">
 <defs>
  <style type="text/css">
   <![CDATA[
    .str1 {stroke:#2B2A29;stroke-width:20;stroke-miterlimit:22.9256;stroke-opacity:0.301961}
    .str0 {stroke:#2B2A29;stroke-width:20;stroke-miterlimit:22.9256}
    .str2 {stroke:#2B2A29;stroke-width:20;stroke-miterlimit:22.9256}
    .fil3 {fill:none}
    .fil0 {fill:#FEFEFE}
    .fil2 {fill:#C5C6C6}
    .fil1 {fill:#FEFEFE;fill-opacity:0.301961}
   ]]>
  </style>
     <clipPath id="id0">
      <path d="M-197908.87 -285628.77c11501.11,0 20824.61,9323.5 20824.61,20824.61 0,11501.12 -9323.5,20824.61 -20824.61,20824.61 -11501.12,0 -20824.61,-9323.49 -20824.61,-20824.61 0,-11501.11 9323.49,-20824.61 20824.61,-20824.61z"/>
     </clipPath>
 </defs>
 <g id="Слой_x0020_1">
  <metadata id="CorelCorpID_0Corel-Layer"/>
  <g id="_2245698876576">
   <path class="fil0 str0" d="M-156259.65 -264804.16c0,23002.26 -18646.98,41649.23 -41649.24,41649.23 -23002.26,0 -41649.23,-18646.97 -41649.23,-41649.23 0,-23002.26 18646.97,-41649.24 41649.23,-41649.24 23002.26,0 41649.24,18646.98 41649.24,41649.24z"/>
   <g>
    <path class="fil1 str1" d="M-197908.87 -306453.38c23002.22,0 41649.22,18646.99 41649.22,41649.22 0,23002.24 -18647,41649.22 -41649.22,41649.22 -23002.23,0 -41649.23,-18646.98 -41649.23,-41649.22 0,-23002.23 18647,-41649.22 41649.23,-41649.22z"/>
    <path class="fil2 str2" d="M-197908.87 -304370.92c21852.12,0 39566.75,17714.64 39566.75,39566.76 0,21852.13 -17714.63,39566.76 -39566.75,39566.76 -21852.13,0 -39566.76,-17714.63 -39566.76,-39566.76 0,-21852.12 17714.63,-39566.76 39566.76,-39566.76zm0 4859.08c19168.52,0 34707.68,15539.16 34707.68,34707.68 0,19168.53 -15539.16,34707.69 -34707.68,34707.69 -19168.53,0 -34707.69,-15539.16 -34707.69,-34707.69 0,-19168.52 15539.16,-34707.68 34707.69,-34707.68z"/>
    <path class="fil2 str2" d="M-197908.87 -290487.84c14184.71,0 25683.68,11498.97 25683.68,25683.68 0,14184.71 -11498.97,25683.69 -25683.68,25683.69 -14184.72,0 -25683.69,-11498.98 -25683.69,-25683.69 0,-14184.71 11498.97,-25683.68 25683.69,-25683.68zm2.72 4842.65c11501.11,0 20824.61,9323.5 20824.61,20824.61 0,11501.11 -9323.5,20824.61 -20824.61,20824.61 -11501.12,0 -20824.61,-9323.5 -20824.61,-20824.61 0,-11501.11 9323.49,-20824.61 20824.61,-20824.61z"/>
    <path class="fil2 str2" d="M-190807.9 -297692c2122.68,466.4 3465.32,2565.24 2998.93,4687.92 -265.5,1208.3 -1060.09,2163.61 -2086.8,2676.62 677.87,-468.41 1187.07,-1184.38 1377.82,-2052.62 400.21,-1821.41 -751.89,-3622.33 -2573.28,-4022.55 -1821.38,-400.18 -3622.33,751.91 -4022.54,2573.31 -190.78,868.25 -28.62,1731.75 390.46,2441.15 -717.1,-896.16 -1038.03,-2096.6 -772.52,-3304.88 466.39,-2122.7 2565.22,-3465.36 4687.93,-2998.95zm13324.93 6158.24c1741.31,1300.42 2098.72,3766.21 798.29,5507.54 -740.25,991.21 -1858.14,1533.71 -3005.05,1577.56 810.73,-147.09 1569.91,-589.3 2101.82,-1301.56 1115.85,-1494.18 809.16,-3609.96 -685,-4725.82 -1494.15,-1115.83 -3609.97,-809.16 -4725.84,685.02 -531.91,712.24 -740.37,1565.76 -651.2,2384.86 -283.61,-1112.16 -80.82,-2338.1 659.44,-3329.3 1300.41,-1741.33 3766.2,-2098.75 5507.54,-798.3zm9425.01 11206.76c1007.3,1925.78 262.72,4303.49 -1663.07,5310.79 -1096.22,573.37 -2338.78,578.84 -3391.77,122.17 794.57,218.14 1670.34,147.92 2458.02,-264.11 1652.48,-864.33 2291.33,-2904.55 1427.03,-4557 -864.33,-1652.42 -2904.56,-2291.33 -4557.02,-1427 -787.71,412.01 -1344.92,1091.32 -1618.91,1868.37 225.48,-1125.39 938.69,-2142.92 2034.91,-2716.27 1925.79,-1007.32 4303.49,-262.76 5310.81,1663.05zm3784.55 15052.18c69.47,2172.2 -1635.13,3989.41 -3807.35,4058.87 -1236.48,39.52 -2357.75,-495.97 -3107.31,-1365.17 620.62,542.01 1439.76,859.69 2328.25,831.24 1863.91,-59.59 3326.52,-1618.88 3266.95,-3482.76 -59.63,-1863.86 -1618.89,-3326.54 -3482.81,-3266.94 -888.5,28.4 -1685.69,397.75 -2270.36,978.3 692.48,-915.31 1777.27,-1521.36 3013.75,-1560.88 2172.21,-69.47 3989.41,1635.11 4058.88,3807.34zm-3298.53 15022.72c-953.38,1953.04 -3309.49,2763.4 -5262.54,1810.01 -1111.71,-542.72 -1852.93,-1540.01 -2109.6,-2658.7 295.52,769.15 871.37,1432.72 1670.22,1822.64 1675.85,818.11 3697.51,122.73 4515.59,-1553.08 818.04,-1675.81 122.72,-3697.51 -1553.12,-4515.6 -798.86,-389.97 -1676.26,-435.84 -2464.43,-195.68 1039.88,-485.77 2282.14,-514.84 3393.86,27.88 1953.05,953.39 2763.41,3309.47 1810.02,5262.53zm-9401.05 11779.44c-1655,1408.63 -4138.57,1208.9 -5547.19,-446.13 -801.82,-942.09 -1082.23,-2152.61 -870,-3280.57 -36.82,823.14 225.53,1661.65 801.71,2338.56 1208.71,1420.14 3339.74,1591.5 4759.85,382.83 1420.07,-1208.69 1591.49,-3339.73 382.78,-4759.87 -576.16,-676.97 -1361.95,-1069.96 -2180.4,-1165.11 1147.38,-29.27 2297.56,441 3099.37,1383.1 1408.64,1655.02 1208.89,4138.55 -446.12,5547.19zm-13708.72 6528.97c-2125.69,452.47 -4215.69,-903.95 -4668.13,-3029.66 -257.54,-1210 71.25,-2408.29 794.21,-3299.74 -423.72,706.68 -591.54,1569.08 -406.45,2438.52 388.24,1824.03 2181.57,2987.89 4005.56,2599.68 1823.94,-388.26 2987.86,-2181.58 2599.63,-4005.6 -185.05,-869.49 -689.54,-1588.8 -1364.35,-2061.6 1023.34,519.73 1811.68,1480.24 2069.18,2690.26 452.48,2125.71 -903.94,4215.67 -3029.65,4668.14zm-15128.55 -65566.02c2119.39,-481.03 4227.45,847.11 4708.5,2966.53 273.83,1206.45 -38.82,2409.06 -749.7,3310.14 414.15,-712.3 570.35,-1576.9 373.59,-2443.8 -412.77,-1818.58 -2221.61,-2958.2 -4040.21,-2545.46 -1818.57,412.77 -2958.22,2221.62 -2545.44,4040.22 196.75,866.9 710.88,1579.34 1391.95,2043.05 -1030.22,-505.88 -1831.39,-1455.71 -2105.22,-2662.15 -481.04,-2119.42 847.1,-4227.49 2966.53,-4708.53zm-128.51 65379.89c-2111.44,-514.91 -3405.66,-2643.99 -2890.72,-4755.42 293.11,-1201.89 1109.38,-2138.74 2147.6,-2628.09 -688.45,452.75 -1213.91,1156.87 -1424.5,2020.5 -441.85,1811.78 668.67,3638.61 2480.41,4080.48 1811.72,441.8 3638.61,-668.69 4080.46,-2480.47 210.65,-863.64 68.32,-1730.62 -334.43,-2449.45 696.38,912.36 989.74,2119.84 696.59,3321.72 -514.91,2111.45 -2643.97,3405.64 -4755.41,2890.73zm-12442.76 -5980.59c-1732.56,-1312.07 -2073.41,-3780.23 -761.32,-5512.77 746.88,-986.21 1868.38,-1521.23 3015.58,-1557.36 -811.72,141.65 -1573.84,578.75 -2110.49,1287.42 -1125.88,1486.66 -833.39,3604.44 653.24,4730.33 1486.63,1125.81 3604.45,833.36 4730.34,-653.31 536.7,-708.64 750.86,-1560.73 667.18,-2380.43 276.14,1114.03 65.15,2338.59 -681.76,3324.79 -1312.08,1732.56 -3780.21,2073.41 -5512.77,761.33zm-9982.6 -12406.77c-907.93,-1974.58 -43.23,-4311.31 1931.34,-5219.22 1123.99,-516.81 2365.23,-459 3393.61,50.72 -782.44,-258.34 -1660.65,-232.78 -2468.29,138.59 -1694.34,779.08 -2436.27,2784.1 -1657.25,4478.43 779.08,1694.28 2784.11,2436.26 4478.47,1657.19 807.68,-371.34 1398.72,-1021.4 1711.93,-1783.51 -282.48,1112.43 -1046.58,2092.34 -2170.59,2609.13 -1974.58,907.94 -4311.28,43.24 -5219.22,-1931.33zm-3174.17 -14774.31c78.66,-2171.89 1903.1,-3868.79 4074.97,-3790.1 1236.3,44.78 2318.5,655.42 3007.12,1573.66 -582.24,-583.03 -1377.87,-955.73 -2266.21,-987.9 -1863.66,-67.5 -3429.09,1388.53 -3496.63,3252.14 -67.46,1863.59 1388.54,3429.07 3252.21,3496.6 888.36,32.2 1708.84,-282.01 2331.72,-821.39 -753.23,866 -1876.76,1396.77 -3113.07,1351.96 -2171.9,-78.66 -3868.76,-1903.08 -3790.11,-4074.97zm3798.37 -15048.49c1004.55,-1927.21 3381.23,-2675.17 5308.41,-1670.59 1097.03,571.81 1811.69,1588.33 2038.77,2713.4 -275.12,-776.69 -833.29,-1455.18 -1621.55,-1866.05 -1653.71,-862 -3693,-220.2 -4555.01,1433.44 -861.93,1653.67 -220.18,3693 1433.52,4555.01 788.28,410.91 1664.15,479.88 2458.4,260.58 -1052.32,458.17 -2294.91,454.5 -3391.94,-117.36 -1927.22,-1004.57 -2675.16,-3381.21 -1670.6,-5308.43zm9817.49 -11494.63c1759.28,-1275.99 4219.89,-884.21 5495.86,875.08 726.34,1001.42 912,2230.08 612.9,3338.18 100.57,-817.81 -95.97,-1674.13 -617.88,-2393.7 -1094.91,-1509.62 -3206.21,-1845.77 -4715.83,-750.93 -1509.53,1094.92 -1845.74,3206.23 -750.83,4715.86 521.9,719.62 1274.84,1172.37 2083.46,1330.74 -1146.19,-59.84 -2256.42,-617.9 -2982.75,-1619.37 -1276.01,-1759.29 -884.22,-4219.85 875.07,-5495.86z"/>
    <path class="fil2" d="M-197908.87 -285628.77c11501.11,0 20824.61,9323.5 20824.61,20824.61 0,11501.12 -9323.5,20824.61 -20824.61,20824.61 -11501.12,0 -20824.61,-9323.49 -20824.61,-20824.61 0,-11501.11 9323.49,-20824.61 20824.61,-20824.61z"/>
    <g style="clip-path:url(#id0)">
     <g>
      <image x="-218733.49" y="-285628.76" width="41649.22" height="41649.22" xlink:href="logo_Images\logo_ImgID1.png"/>
     </g>
    </g>
    <path class="fil3 str2" d="M-197908.87 -285628.77c11501.11,0 20824.61,9323.5 20824.61,20824.61 0,11501.12 -9323.5,20824.61 -20824.61,20824.61 -11501.12,0 -20824.61,-9323.49 -20824.61,-20824.61 0,-11501.11 9323.49,-20824.61 20824.61,-20824.61z"/>
   </g>
  </g>
 </g>
</svg>
